<svg xmlns="http://www.w3.org/2000/svg" width="900" height="1200" viewBox="0 0 900 1200">
  <defs>
    <radialGradient id="g" cx="50%" cy="35%" r="70%">
      <stop offset="0%" stop-color="#1f2937"/>
      <stop offset="60%" stop-color="#0b1220"/>
      <stop offset="100%" stop-color="#030712"/>
    </radialGradient>
    <filter id="noise" x="-20%" y="-20%" width="140%" height="140%">
      <feTurbulence type="fractalNoise" baseFrequency="0.9" numOctaves="2" stitchTiles="stitch"/>
      <feColorMatrix type="matrix" values="0 0 0 0 0  0 0 0 0 0  0 0 0 0 0  0 0 0 0.22 0"/>
    </filter>
  </defs>

  <rect width="900" height="1200" fill="url(#g)"/>

  <g opacity="0.75">
    <ellipse cx="310" cy="520" rx="170" ry="260" fill="#d1d5db" opacity="0.18"/>
    <ellipse cx="590" cy="520" rx="170" ry="260" fill="#d1d5db" opacity="0.18"/>
  </g>

  <g opacity="0.55" fill="#e5e7eb">
    <path d="M450 250 C510 290 525 360 520 430 C515 500 500 610 500 680 C500 720 510 820 520 900 C525 950 500 980 450 990 C400 980 375 950 380 900 C390 820 400 720 400 680 C400 610 385 500 380 430 C375 360 390 290 450 250 Z" opacity="0.12"/>
  </g>

  <g stroke="#e5e7eb" opacity="0.28" stroke-width="8">
    <path d="M260 420 C320 380 380 380 440 420"/>
    <path d="M260 500 C320 460 380 460 440 500"/>
    <path d="M260 580 C320 540 380 540 440 580"/>
    <path d="M460 420 C520 380 580 380 640 420"/>
    <path d="M460 500 C520 460 580 460 640 500"/>
    <path d="M460 580 C520 540 580 540 640 580"/>
  </g>

  <g filter="url(#noise)">
    <rect x="0" y="0" width="900" height="1200" fill="#ffffff" opacity="0.09"/>
  </g>

  <g font-family="ui-sans-serif, system-ui, -apple-system, Segoe UI, Roboto, Helvetica, Arial" fill="#e5e7eb" opacity="0.55">
    <text x="40" y="70" font-size="28">SAMPLE XRAY IMAGE</text>
    <text x="40" y="105" font-size="18" opacity="0.8">For demo purposes only</text>
  </g>

  <rect x="30" y="30" width="840" height="1140" fill="none" stroke="#e5e7eb" opacity="0.15" stroke-width="6"/>
</svg>
